<?xml version="1.0" encoding="UTF-8"?>
<svg xmlns="http://www.w3.org/2000/svg" xmlns:xlink="http://www.w3.org/1999/xlink" width="203pt" height="200pt" viewBox="0 0 203 200" version="1.1">
<g id="surface3">
<path style="fill-rule:nonzero;fill:rgb(80%,80%,80%);fill-opacity:1;stroke-width:0.5;stroke-linecap:butt;stroke-linejoin:miter;stroke:rgb(100%,100%,100%);stroke-opacity:1;stroke-miterlimit:4;" d="M 498.905577 208.164063 L 502.374731 206.453125 L 501.412985 203.920938 L 503.382274 197.19125 L 508.912311 190.381719 L 508.191002 188.1575 L 513.984375 177.903281 L 513.19437 176.066875 L 508.866514 175.279844 L 510.583917 167.671875 L 509.438982 165.846875 L 511.282328 166.211875 L 508.419989 164.546563 L 514.78583 162.801406 L 518.369477 156.060313 L 515.793373 154.052813 L 518.793103 149.330625 L 516.514682 145.874531 L 512.083782 144.425938 L 508.958109 148.247031 L 507.824623 144.505781 L 509.656519 143.35375 L 503.828798 141.403281 L 503.382274 138.893906 L 507.046067 137.445313 L 509.793912 129.803125 L 510.961746 134.308594 L 517.934402 136.3275 L 519.262527 138.255156 L 524.494881 136.669688 L 528.021282 138.939531 L 532.165948 131.297344 L 538.69208 130.521719 L 541.69181 132.563438 L 544.485453 131.023594 L 556.885102 136.817969 L 550.954337 147.117813 L 546.076913 149.957969 L 540.569774 157.235156 L 536.150323 172.656406 L 536.665544 176.853906 L 534.524515 178.427969 L 529.692888 189.685938 L 529.395205 195.046875 L 531.582031 198.902188 L 528.845636 204.639531 L 528.490706 213.604844 L 526.979391 215.840469 L 529.944774 223.311563 L 526.452721 225.524375 L 527.757947 226.242969 L 526.006196 229.014688 L 523.63618 228.227656 L 524.643723 229.710469 L 521.769935 232.094375 L 515.827721 232.744531 L 512.793642 231.364375 L 514.110318 228.296094 L 511.225081 227.748594 L 509.301589 222.239375 L 505.946929 221.669063 L 507.240706 214.255 L 500.165005 210.593594 Z M 498.905577 208.164063 " transform="matrix(0.341176,0,0,0.342466,0,0)"/>
<path style="fill-rule:nonzero;fill:rgb(80%,80%,80%);fill-opacity:1;stroke-width:0.5;stroke-linecap:butt;stroke-linejoin:miter;stroke:rgb(100%,100%,100%);stroke-opacity:1;stroke-miterlimit:4;" d="M 241.283675 335.777188 L 247.294585 338.309375 L 246.332839 341.252188 L 248.840248 343.784375 L 251.198815 340.955625 L 252.378098 342.233125 L 257.404364 341.662813 L 260.186557 346.373594 L 263.564116 346.681563 L 261.674973 349.624375 L 268.842268 352.13375 L 267.296606 353.95875 L 270.124596 355.3275 L 266.483702 358.680938 L 266.094423 361.589531 L 268.189655 362.661719 L 266.105873 365.593125 L 268.647629 366.505625 L 267.239359 367.851563 L 269.437635 369.767813 L 273.742592 370.246875 L 272.334321 371.410313 L 275.242457 376.417656 L 273.673895 377.31875 L 274.967672 384.71 L 269.094154 389.569063 L 269.815463 392.819844 L 262.865706 396.914688 L 261.056708 402.515156 L 255.973195 404.214688 L 259.270609 414.503125 L 254.29014 415.689375 L 252.412446 413.613438 L 251.290409 417.708281 L 254.667969 419.772813 L 252.836072 424.58625 L 250.626347 424.974063 L 252.320851 427.631719 L 247.970097 427.300938 L 248.336476 429.171563 L 242.714844 434.156094 L 239.783809 430.939531 L 227.624596 436.117969 L 224.739359 434.315781 L 221.648033 437.144531 L 220.422953 435.490625 L 217.45757 437.806094 L 217.594962 441.55875 L 214.27465 439.665313 L 215.431034 438.239531 L 213.644935 436.494375 L 211.171875 439.710938 L 207.702721 439.095 L 205.206762 441.478906 L 207.416487 443.155625 L 207.130253 446.497656 L 205.756331 446.600313 L 207.084456 450.660938 L 204.794585 452.383281 L 203.546606 457.459063 L 205.252559 459.500781 L 211.148976 459.535 L 214.389143 465.797031 L 212.419855 466.310313 L 212.362608 469.275938 L 215.121902 467.325469 L 216.381331 472.960156 L 213.232759 475.515156 L 214.434941 477.271719 L 212.110722 479.975 L 212.32826 482.587031 L 210.267376 482.415938 L 207.130253 486.145781 L 207.668373 489.681719 L 203.180226 492.305156 L 202.115436 501.122188 L 198.737877 503.97375 L 194.112338 502.365469 L 192.211746 505.16 L 184.735318 498.464531 L 183.80792 494.415313 L 175.953664 495.247969 L 168.855065 491.244375 L 167.687231 492.156875 L 160.771821 488.735 L 162.363281 485.90625 L 159.317753 487.263594 L 158.917026 491.004844 L 155.344828 490.001094 L 153.982355 487.617188 L 157.772091 481.914063 L 157.497306 478.013125 L 151.417699 475.971406 L 148.383621 478.355313 L 147.719558 475.218594 L 143.357355 475.823125 L 140.96444 472.720625 L 140.895744 471.386094 L 145.933459 470.542031 L 148.715652 467.987031 L 155.104391 455.748125 L 161.309941 423.434219 L 162.970097 404.191875 L 165.591999 397.519219 L 173.457705 398.85375 L 170.755657 395.352031 L 172.232624 395.329219 L 166.691137 390.709688 L 163.393723 400.062813 L 162.764009 399.024844 L 167.103314 349.624375 L 169.690867 344.856563 L 171.076239 343.841406 L 170.835803 347.502813 L 181.735587 357.255156 L 186.47562 373.178281 L 190.425647 377.033594 L 187.368669 369.961719 L 185.433728 358.350156 L 190.402748 358.772188 L 190.734779 357.255156 L 191.673626 360.197969 L 197.478448 361.25875 L 199.241649 369.174688 L 200.088901 367.634844 L 207.244747 372.060469 L 211.515356 370.463594 L 213.335803 371.809531 L 215.51118 365.707188 L 217.491918 364.27 L 220.766433 365.501875 L 226.216325 360.140938 L 225.437769 355.875 L 227.716191 350.571094 L 228.895474 351.58625 L 233.085938 349.008438 L 236.108567 345.141719 L 236.383351 340.339688 L 238.638874 340.305469 Z M 211.744343 471.625625 L 210.301724 474.077969 L 211.984779 475.195781 Z M 210.084186 478.97125 L 211.813039 477.727969 L 210.404768 475.070313 Z M 210.084186 478.97125 " transform="matrix(0.341176,0,0,0.342466,0,0)"/>
<path style="fill-rule:nonzero;fill:rgb(80%,80%,80%);fill-opacity:1;stroke-width:0.5;stroke-linecap:butt;stroke-linejoin:miter;stroke:rgb(100%,100%,100%);stroke-opacity:1;stroke-miterlimit:4;" d="M 309.785156 293.437188 L 313.116918 287.631406 L 320.421606 287.483125 L 323.661773 285.418594 L 321.806977 279.053906 L 324.211342 279.065313 L 324.0625 277.160469 L 327.863685 273.84125 L 329.741379 275.552188 L 333.27923 275.016094 L 336.370555 270.955469 L 340.961746 270.841406 L 347.945851 277.993125 L 350.831088 275.540781 L 354.059806 277.525469 L 357.116783 275.723281 L 358.616649 279.487344 L 362.944504 277.228906 L 364.100889 272.8375 L 365.612204 273.259531 L 370.249192 282.475781 L 370.478179 286.296875 L 374.508351 286.741719 L 375.756331 289.342344 L 379.122441 289.045781 L 381.183324 290.916406 L 381.377963 298.980625 L 377.00431 302.071719 L 371.554418 304.273125 L 374.164871 318.599375 L 368.795124 320.355938 L 368.463093 322.705625 L 371.016298 325.329063 L 368.302802 330.96375 L 380.587958 348.426719 L 379.694908 351.962656 L 376.615032 354.369375 L 377.244747 357.962344 L 379.065194 355.487188 L 381.97333 358.315938 L 382.064925 357.06125 L 384.171606 357.848281 L 387.228583 355.019531 L 390.892376 354.711563 L 396.456762 357.825469 L 394.968346 358.909063 L 396.605603 359.867188 L 395.701105 361.452656 L 399.284752 361.452656 L 401.563173 364.498125 L 400.177802 370.611875 L 396.708648 369.151875 L 397.750539 371.433125 L 395.586611 373.098438 L 396.960533 375.436719 L 393.502829 376.451875 L 394.224138 379.155156 L 390.525997 379.736875 L 387.686557 385.006563 L 382.625943 385.052188 L 382.374057 387.310625 L 379.088093 387.698438 L 378.023303 391.0975 L 375.435749 392.523281 L 370.535426 387.036875 L 367.341056 387.584375 L 365.818292 384.516094 L 364.306977 384.835469 L 364.100889 387.744063 L 359.509698 388.713594 L 355.067349 379.029688 L 351.51805 381.847031 L 349.697602 381.345156 L 347.625269 385.611094 L 345.117861 383.204375 L 338.912311 398.317656 L 333.840248 384.915313 L 330.245151 385.998906 L 328.745286 381.014375 L 323.261045 386.592031 L 321.40625 393.914844 L 318.234779 397.964063 L 312.784887 398.545781 L 310.403421 396.926094 L 307.151805 397.986875 L 306.625135 399.868906 L 303.533809 395.283594 L 305.274111 389.934063 L 301.9309 384.98375 L 300.69437 379.006875 L 304.083378 377.524063 L 302.240032 374.090781 L 305.331358 372.790469 L 305.594693 369.573906 L 307.792969 367.897188 L 306.201509 364.600781 L 313.08257 357.825469 L 312.624596 353.388438 L 318.097387 355.863594 L 320.078125 354.563281 L 318.39507 352.955 L 319.654499 344.982031 L 317.307381 342.506875 L 319.81479 339.780781 L 319.894935 335.754375 L 314.284752 328.922031 L 321.268858 323.675156 L 321.58944 321.10875 L 323.547279 320.19625 L 323.135102 316.455 L 318.177532 301.809375 L 310.701105 298.033906 L 312.006331 296.28875 L 310.082839 295.74125 Z M 309.785156 293.437188 " transform="matrix(0.341176,0,0,0.342466,0,0)"/>
<path style="fill-rule:nonzero;fill:rgb(80%,80%,80%);fill-opacity:1;stroke-width:0.5;stroke-linecap:butt;stroke-linejoin:miter;stroke:rgb(100%,100%,100%);stroke-opacity:1;stroke-miterlimit:4;" d="M 341.614359 174.835 L 340.286234 178.21125 L 341.614359 181.644531 L 337.046067 187.028281 L 340.89305 188.876094 L 341.728852 192.594531 L 344.843077 195.286406 L 344.980469 198.822344 L 340.045797 202.94 L 340.721309 210.297031 L 333.508217 212.122031 L 333.347926 214.608594 L 336.599542 216.764375 L 338.694774 223.676563 L 333.359375 225.604219 L 336.794181 231.717969 L 334.172279 237.808906 L 338.900862 242.485469 L 340.400727 254.507656 L 342.885237 256.971406 L 340.961746 270.841406 L 347.945851 277.993125 L 350.831088 275.540781 L 354.059806 277.525469 L 357.116783 275.723281 L 358.616649 279.487344 L 362.944504 277.228906 L 364.100889 272.8375 L 365.612204 273.259531 L 370.249192 282.475781 L 370.478179 286.296875 L 374.508351 286.741719 L 375.756331 289.342344 L 379.122441 289.045781 L 381.183324 290.916406 L 381.377963 298.980625 L 377.00431 302.071719 L 376.637931 305.744531 L 380.061288 306.451719 L 380.748249 308.447813 L 389.804688 306.942188 L 392.621228 309.223438 L 396.66285 307.455469 L 398.025323 300.885469 L 402.112742 302.573594 L 404.791891 300.988125 L 406.864224 302.687656 L 409.41743 300.258125 L 412.669046 308.265313 L 420.259968 287.505938 L 425.068696 289.581875 L 429.682786 287.483125 L 432.487877 291.144531 L 435.750943 291.851719 L 440.010102 290.015313 L 437.559941 284.8825 L 441.006196 280.342813 L 437.651536 274.787969 L 438.922414 272.335625 L 436.266164 269.620938 L 442.025189 268.103906 L 439.254445 264.955781 L 436.357759 265.26375 L 434.903691 262.104219 L 433.655711 262.754375 L 433.254984 259.754531 L 435.911234 257.644375 L 434.480065 255.454375 L 438.681977 253.435469 L 440.926051 249.648594 L 444.246363 239.998906 L 442.18548 239.189063 L 442.792295 234.501094 L 440.651266 234.523906 L 440.914601 230.976563 L 437.937769 230.121094 L 443.353314 224.554844 L 441.029095 219.969531 L 438.166756 221.497969 L 435.45326 221.235625 L 433.174838 223.243125 L 433.49542 220.448594 L 429.934671 218.612188 L 430.14076 216.878438 L 427.610453 218.954375 L 423.912311 215.019219 L 421.404903 216.524844 L 421.015625 211.836875 L 419.206627 211.5175 L 422.389547 208.996719 L 418.691406 202.004688 L 415.714574 202.768906 L 417.122845 200.818438 L 413.768184 199.461094 L 414.123114 196.769219 L 405.215517 195.343438 L 403.452317 196.735 L 404.219423 199.118906 L 394.247037 199.540938 L 393.353987 201.787969 L 391.35035 201.468594 L 390.594693 198.879375 L 389.58715 200.772813 L 388.133082 199.655 L 385.763066 201.730938 L 383.679283 200.510469 L 383.03812 201.776563 L 376.821121 201.525625 L 377.588227 198.411719 L 376.809671 197.054375 L 375.035022 198.206406 L 375.870824 196.233125 L 372.516164 189.857031 L 370.375135 188.944531 L 370.741514 186.88 L 367.375404 188.476875 L 365.841191 185.374375 L 363.700162 185.705156 L 365.360318 180.481094 L 360.574488 174.390156 L 357.425916 174.880625 L 356.853448 172.907344 Z M 341.614359 174.835 " transform="matrix(0.341176,0,0,0.342466,0,0)"/>
<path style="fill-rule:nonzero;fill:rgb(80%,80%,80%);fill-opacity:1;stroke-width:0.5;stroke-linecap:butt;stroke-linejoin:miter;stroke:rgb(100%,100%,100%);stroke-opacity:1;stroke-miterlimit:4;" d="M 80.294316 234.831875 L 88.022629 239.314531 L 87.461611 241.014063 L 80.683594 240.010313 Z M 81.244612 143.011563 L 81.46215 145.235781 L 87.026536 142.977344 L 87.026536 146.022813 L 90.094962 145.828906 L 88.766837 148.532188 L 93.541218 150.072031 L 92.854256 152.250625 L 98.166756 156.7675 L 97.972117 160.120938 L 102.460264 162.584688 L 101.349677 164.535156 L 102.517511 164.044688 L 104.13187 166.850625 L 103.76549 164.044688 L 106.055361 164.70625 L 109.07799 159.835781 L 112.4441 158.41 L 111.814386 156.995625 L 113.955415 156.516563 L 114.665275 157.987969 L 118.878637 154.269531 L 120.332705 155.535625 L 118.11153 158.569688 L 121.992861 157.052656 L 122.782866 162.949688 L 123.9507 159.151406 L 124.649111 161.318594 L 125.839844 158.695156 L 126.916083 159.790156 L 125.782597 157.737031 L 130.121902 157.394844 L 133.224677 163.348906 L 132.709456 166.394375 L 134.644397 164.831719 L 132.652209 160.839531 L 134.278017 161.706406 L 133.716999 160.383281 L 130.717268 157.657188 L 132.446121 154.600313 L 138.594423 152.786719 L 137.563982 157.440469 L 141.30792 159.573438 L 149.849138 157.668594 L 153.306843 166.759375 L 156.100485 168.515938 L 158.905577 168.025469 L 163.061692 163.326094 L 170.686961 165.561719 L 171.717403 176.75125 L 169.404634 180.652188 L 172.919585 196.974531 L 167.17201 199.335625 L 163.370824 210.958594 L 153.741918 207.342813 L 153.982355 209.3275 L 147.788254 211.757031 L 146.219693 215.07625 L 137.907462 215.144688 L 133.968885 217.425938 L 133.213227 216.045781 L 128.702182 218.749063 L 128.015221 225.935 L 125.565059 226.619375 L 125.301724 228.569844 L 119.70299 226.950156 L 118.924434 230.326406 L 114.516433 229.356875 L 113.085264 231.124844 L 111.528152 231.010781 L 111.264817 228.432969 L 113.795124 228.045156 L 110.944235 226.459688 L 98.235453 228.786563 L 89.545393 222.296406 L 89.751482 223.824844 L 85.457974 223.699375 L 85.274784 227.12125 L 87.266972 229.881563 L 85.125943 229.607813 L 84.370286 222.113906 L 78.702856 216.593281 L 75.61153 216.547656 L 75.393992 215.019219 L 71.753098 215.943125 L 68.684671 211.757031 L 60.372441 209.224844 L 55.094289 210.103125 L 51.304553 203.21375 L 49.518454 204.388594 L 50.125269 206.167969 L 42.992322 206.031094 L 41.126078 209.749531 L 33.82139 209.760938 L 34.210668 204.114844 L 31.600216 199.495313 L 27.879176 196.849063 L 18.502155 194.761719 L 19.429553 193.17625 L 31.794855 190.552813 L 36.431843 191.647813 L 38.000404 189.127031 L 35.985318 184.530313 L 29.848464 182.351719 L 25.898438 186.617656 L 26.539601 181.724375 L 23.287985 181.405 L 23.0132 179.830938 L 25.440463 179.67125 L 25.371767 176.648594 L 26.997575 176.009844 L 26.871633 179.557188 L 28.360048 177.857656 L 28.234106 179.7625 L 30.340787 178.781563 L 32.561961 180.138906 L 36.340248 178.701719 L 38.275189 179.796719 L 39.889547 177.709375 L 35.103718 177.629531 L 36.534887 176.66 L 35.893723 174.675313 L 33.615302 176.922344 L 30.066002 176.910938 L 32.481816 173.375 L 31.497171 172.599375 L 23.871902 176.180938 L 20.814925 175.120156 L 16.990841 176.739844 L 16.8191 165.128281 L 18.76549 162.584688 L 23.73451 161.318594 L 26.573949 157.531719 L 32.424569 157.4975 L 30.947602 156.425313 L 34.71444 154.999531 L 36.786773 155.786563 L 36.798222 157.725625 L 40.977236 156.585 L 39.855199 156.162969 L 41.355065 154.395 L 46.633217 155.045156 L 48.774246 151.84 L 50.308459 151.851406 L 50.239763 155.193438 L 51.911369 155.900625 L 52.163254 153.642188 L 52.2434 155.193438 L 55.449219 156.0375 L 56.388066 152.353281 L 63.841595 153.824688 L 63.234779 156.151563 L 64.700296 154.429219 L 66.40625 155.432969 L 67.803071 150.733594 L 66.211611 146.889688 L 67.551185 147.802188 L 69.634968 144.802344 L 74.054418 147.254688 Z M 81.244612 143.011563 " transform="matrix(0.341176,0,0,0.342466,0,0)"/>
<path style="fill-rule:nonzero;fill:rgb(80%,80%,80%);fill-opacity:1;stroke-width:0.5;stroke-linecap:butt;stroke-linejoin:miter;stroke:rgb(100%,100%,100%);stroke-opacity:1;stroke-miterlimit:4;" d="M 277.463631 138.460469 L 281.493804 144.825156 L 281.642645 155.775156 L 289.313712 162.755781 L 289.909079 168.185156 L 292.737069 169.827656 L 295.244477 168.789688 L 295.152883 171.972031 L 297.213766 172.245781 L 297.648842 174.618281 L 296.996228 179.283438 L 304.93063 178.633281 L 306.567888 175.793125 L 308.319639 178.633281 L 311.754445 176.4775 L 314.925916 177.561094 L 315.73882 181.04 L 319.620151 183.13875 L 319.64305 186.777344 L 316.574623 189.457813 L 327.440059 189.492031 L 329.455145 188.134688 L 328.722387 186.800156 L 331.32139 186.674688 L 332.168642 189.092813 L 337.046067 187.028281 L 340.89305 188.876094 L 341.728852 192.594531 L 344.843077 195.286406 L 344.980469 198.822344 L 340.045797 202.94 L 340.721309 210.297031 L 333.508217 212.122031 L 333.347926 214.608594 L 336.599542 216.764375 L 338.694774 223.676563 L 333.359375 225.604219 L 336.794181 231.717969 L 334.172279 237.808906 L 338.900862 242.485469 L 340.400727 254.507656 L 342.885237 256.971406 L 340.961746 270.841406 L 336.370555 270.955469 L 333.27923 275.016094 L 329.741379 275.552188 L 327.863685 273.84125 L 324.0625 277.160469 L 324.211342 279.065313 L 321.806977 279.053906 L 323.661773 285.418594 L 320.421606 287.483125 L 313.116918 287.631406 L 309.785156 293.437188 L 301.816406 294.030313 L 297.271013 292.045625 L 291.466191 293.083594 L 289.141972 291.224375 L 286.897899 295.205156 L 285.10035 293.517031 L 282.730334 295.342031 L 281.940329 293.334531 L 279.26118 295.068281 L 278.471175 293.015156 L 273.879984 297.862813 L 271.326778 294.634844 L 269.242996 296.334375 L 264.03354 295.524531 L 265.430361 292.604531 L 262.888605 291.714844 L 262.625269 288.190313 L 252.916218 282.544219 L 253.019262 274.959063 L 244.375 264.305625 L 243.84833 260.016875 L 238.70757 258.055 L 239.978448 261.032031 L 228.574892 262.640313 L 227.72764 255.306094 L 222.563982 254.827031 L 222.701374 251.405156 L 218.476562 251.165625 L 217.388874 248.439531 L 218.33917 241.276406 L 222.701374 235.174063 L 221.476293 234.090469 L 224.327182 227.919688 L 223.193696 225.524375 L 224.785156 221.486563 L 231.082301 223.630938 L 231.059402 219.125469 L 233.795797 220.631094 L 239.886853 217.391719 L 240.83715 216.091406 L 239.463227 214.574375 L 244.271956 211.551719 L 247.054149 207.536719 L 246.710668 203.316406 L 248.8059 204.080625 L 250.374461 200.886875 L 250.088227 195.354844 L 248.221983 194.887188 L 248.073141 192.822656 L 250.122575 192.674375 L 248.886045 191.009063 L 250.454607 188.910313 L 253.145205 188.568125 L 248.244881 185.134844 L 249.584456 183.925781 L 247.088497 177.161875 L 253.065059 174.025156 L 255.641164 169.804844 L 253.981008 167.535 L 255.251886 164.603594 L 249.126482 159.071563 L 248.989089 155.444375 L 251.519397 152.592813 L 257.049434 151.965469 L 259.282058 149.900938 L 261.434537 150.642344 L 261.697872 147.950469 L 270.445178 149.718438 L 272.105334 148.475156 L 271.681708 145.121719 L 275.757678 142.760625 L 275.253906 139.509844 Z M 277.463631 138.460469 " transform="matrix(0.341176,0,0,0.342466,0,0)"/>
<path style="fill-rule:nonzero;fill:rgb(80%,80%,80%);fill-opacity:1;stroke-width:0.5;stroke-linecap:butt;stroke-linejoin:miter;stroke:rgb(100%,100%,100%);stroke-opacity:1;stroke-miterlimit:4;" d="M 415.863416 60.989219 L 418.382274 62.118438 L 415.210803 66.749375 L 416.092403 68.494531 L 413.951374 72.954375 L 418.050242 76.764063 L 416.344289 79.512969 L 416.527478 84.235156 L 422.504041 83.790313 L 426.614359 86.185625 L 429.60264 90.634063 L 433.930496 90.474375 L 436.472252 93.154844 L 435.739494 95.880938 L 439.139952 95.53875 L 433.598464 100.306563 L 427.381466 97.09 L 425.160291 102.93 L 427.324219 105.644688 L 425.904499 109.169219 L 426.900593 110.720469 L 424.942753 111.404844 L 424.805361 117.324688 L 420.672144 119.674375 L 422.366649 121.465156 L 420.179822 122.993594 L 422.88187 130.339219 L 421.256061 133.31625 L 424.209995 133.190781 L 422.469693 135.700156 L 424.335938 136.3275 L 419.962284 140.034531 L 420.111126 144.597031 L 418.164736 147.357344 L 423.133755 150.916094 L 422.675781 158.854844 L 425.103044 157.794063 L 425.675512 160.075313 L 427.667699 160.098125 L 431.514682 164.295625 L 436.33486 165.470469 L 442.17403 170.865625 L 439.025458 172.850313 L 441.040544 173.591719 L 440.41083 176.580156 L 444.47535 175.553594 L 447.14305 180.150313 L 448.081897 179.043906 L 449.833648 180.526719 L 449.318427 182.157813 L 452.993669 184.895313 L 450.955684 186.047344 L 450.543508 190.461563 L 448.768858 191.875938 L 454.951509 195.0925 L 455.398033 200.088438 L 457.871094 198.662656 L 459.439655 201.730938 L 457.081088 206.270625 L 454.287446 205.814375 L 453.497441 208.255313 L 451.402209 208.198281 L 451.39076 216.581875 L 447.48653 217.346094 L 446.272899 215.178906 L 444.532597 217.300469 L 439.746767 217.209219 L 438.166756 221.497969 L 435.45326 221.235625 L 433.174838 223.243125 L 433.49542 220.448594 L 429.934671 218.612188 L 430.14076 216.878438 L 427.610453 218.954375 L 423.912311 215.019219 L 421.404903 216.524844 L 421.015625 211.836875 L 419.206627 211.5175 L 422.389547 208.996719 L 420.786638 205.380938 L 418.691406 202.004688 L 415.714574 202.768906 L 417.122845 200.818438 L 413.768184 199.461094 L 414.123114 196.769219 L 410.264682 195.662813 L 405.215517 195.343438 L 403.452317 196.735 L 404.219423 199.118906 L 394.247037 199.540938 L 393.353987 201.787969 L 391.35035 201.468594 L 390.594693 198.879375 L 389.58715 200.772813 L 388.133082 199.655 L 385.763066 201.730938 L 383.679283 200.510469 L 383.03812 201.776563 L 376.821121 201.525625 L 377.588227 198.411719 L 376.809671 197.054375 L 375.035022 198.206406 L 375.870824 196.233125 L 372.516164 189.857031 L 370.375135 188.944531 L 370.741514 186.88 L 367.375404 188.476875 L 365.841191 185.374375 L 363.700162 185.705156 L 365.360318 180.481094 L 360.574488 174.390156 L 357.425916 174.880625 L 356.853448 172.907344 L 355.536773 167.295469 L 357.803745 166.633906 L 356.498518 164.295625 L 359.589844 163.42875 L 358.914332 161.626563 L 362.864359 158.752188 L 361.811018 156.892969 L 358.364763 157.58875 L 359.074623 151.155625 L 356.006196 149.878125 L 358.044181 147.882031 L 356.384025 146.73 L 359.864628 146.399219 L 359.784483 144.003906 L 367.776131 133.795313 L 366.665544 131.970313 L 363.940598 132.358125 L 366.138874 129.814531 L 364.593211 127.145469 L 365.474811 125.195 L 370.718615 124.658906 L 366.802936 121.237031 L 366.436557 114.849531 L 371.955145 112.134844 L 375.000673 112.864844 L 375.183863 110.606406 L 378.011853 108.918281 L 382.694639 111.883906 L 384.423491 98.424531 L 382.156519 95.185156 L 385.957705 94.466563 L 386.427128 91.592188 L 391.556439 86.527813 L 389.735991 85.056406 L 391.70528 79.3875 L 390.82368 73.570313 L 394.052398 72.897344 L 399.708378 74.939063 L 409.932651 71.197813 L 410.321929 64.7875 Z M 415.863416 60.989219 " transform="matrix(0.341176,0,0,0.342466,0,0)"/>
<path style="fill-rule:nonzero;fill:rgb(80%,80%,80%);fill-opacity:1;stroke-width:0.5;stroke-linecap:butt;stroke-linejoin:miter;stroke:rgb(100%,100%,100%);stroke-opacity:1;stroke-miterlimit:4;" d="M 579.428879 571.31625 L 580.642511 568.635781 L 585.26805 566.092188 L 579.692214 565.419219 L 579.405981 563.126563 L 574.585803 563.172188 L 577.574084 561.164688 L 576.795528 559.738906 L 579.280038 559.225625 L 578.409887 557.355 L 580.585264 554.560469 L 578.295393 552.450313 L 572.467672 554.651719 L 571.837958 550.682344 L 574.162177 550.488438 L 574.654499 548.0475 L 578.272495 545.982969 L 576.303206 542.492656 L 574.608702 543.154219 L 570.38389 540.644844 L 571.872306 539.37875 L 569.651131 535.512031 L 576.085668 533.869531 L 572.318831 531.702344 L 572.765356 529.227188 L 570.177802 530.116875 L 569.834321 527.812813 L 574.436961 525.554375 L 575.467403 522.554531 L 574.185075 522.018438 L 577.150458 519.395 L 577.379445 516.064375 L 580.001347 517.809531 L 580.550916 515.072031 L 589.401266 512.893438 L 593.946659 507.80625 L 597.976832 507.600938 L 601.171202 510.897344 L 603.083244 507.555313 L 601.606277 502.091719 L 603.758755 496.958906 L 602.877155 493.012344 L 606.33486 492.031406 L 608.006466 493.434375 L 609.231546 503.574531 L 607.285156 511 L 610.880253 518.140313 L 611.956492 537.884531 L 611.567214 543.017344 L 605.865436 551.366719 L 604.823545 568.430469 L 600.346848 571.145156 L 600.724677 572.331406 L 601.995555 570.666094 L 604.113685 571.259219 L 600.152209 574.795156 L 600.346848 578.445156 L 597.47306 581.2625 L 599.556843 581.239688 L 596.24798 583.965781 L 592.664332 582.323281 L 593.786369 579.916563 L 591.691137 579.562969 L 592.080415 577.532656 L 590.420259 578.878594 L 588.714305 577.042188 L 585.474138 577.087813 L 582.24542 575.51375 L 582.714844 573.905469 L 579.95555 573.415 Z M 579.428879 571.31625 " transform="matrix(0.341176,0,0,0.342466,0,0)"/>
<path style="fill-rule:nonzero;fill:rgb(80%,80%,80%);fill-opacity:1;stroke-width:0.5;stroke-linecap:butt;stroke-linejoin:miter;stroke:rgb(100%,100%,100%);stroke-opacity:1;stroke-miterlimit:4;" d="M 459.439655 201.730938 L 461.454741 198.548594 L 462.141703 201.115 L 465.885641 196.940313 L 469.847117 195.959375 L 472.709456 201.354531 L 480.391972 199.586563 L 484.078664 204.228906 L 489.265221 200.499063 L 498.905577 208.164063 L 500.165005 210.593594 L 507.240706 214.255 L 505.946929 221.669063 L 509.301589 222.239375 L 511.225081 227.748594 L 505.019531 228.296094 L 505.798087 230.782656 L 503.244881 232.04875 L 500.703125 236.953438 L 506.404903 235.721563 L 508.030711 238.105469 L 503.359375 240.957031 L 503.874596 243.683125 L 493.386988 253.458281 L 494.073949 255.351719 L 482.132274 262.8 L 483.471848 265.1725 L 482.979526 272.061875 L 468.793777 284.015625 L 470.705819 285.909063 L 466.893184 293.665313 L 458.787042 302.744688 L 452.79903 302.972813 L 452.318157 300.075625 L 449.375673 297.954063 L 445.059267 302.505156 L 442.34577 302.756094 L 442.414467 299.687813 L 440.296336 297.74875 L 439.449084 299.984375 L 438.338497 295.695625 L 435.109779 293.836406 L 435.750943 291.851719 L 440.010102 290.015313 L 437.559941 284.8825 L 441.006196 280.342813 L 437.651536 274.787969 L 438.922414 272.335625 L 436.266164 269.620938 L 442.025189 268.103906 L 439.254445 264.955781 L 436.357759 265.26375 L 434.903691 262.104219 L 433.655711 262.754375 L 433.254984 259.754531 L 435.911234 257.644375 L 434.480065 255.454375 L 438.681977 253.435469 L 440.926051 249.648594 L 444.246363 239.998906 L 442.18548 239.189063 L 442.792295 234.501094 L 440.651266 234.523906 L 440.914601 230.976563 L 437.937769 230.121094 L 443.353314 224.554844 L 441.029095 219.969531 L 438.166756 221.497969 L 439.746767 217.209219 L 444.532597 217.300469 L 446.272899 215.178906 L 447.48653 217.346094 L 451.39076 216.581875 L 451.402209 208.198281 L 453.497441 208.255313 L 454.287446 205.814375 L 457.081088 206.270625 Z M 459.439655 201.730938 " transform="matrix(0.341176,0,0,0.342466,0,0)"/>
<path style="fill-rule:nonzero;fill:rgb(80%,80%,80%);fill-opacity:1;stroke-width:0.5;stroke-linecap:butt;stroke-linejoin:miter;stroke:rgb(100%,100%,100%);stroke-opacity:1;stroke-miterlimit:4;" d="M 285.844558 120.073594 L 287.962689 123.632344 L 293.298087 124.442188 L 301.507274 121.430938 L 305.228314 124.385156 L 307.220501 123.392813 L 307.815867 125.172188 L 311.170528 122.936563 L 318.498114 127.989531 L 321.085668 126.8375 L 322.367996 129.654844 L 324.41743 127.852656 L 328.619343 130.8525 L 331.699219 128.582656 L 333.508217 130.247969 L 338.374192 128.913438 L 339.152748 130.202344 L 342.427263 129.312656 L 342.564655 127.305156 L 345.415544 127.989531 L 347.568023 131.525469 L 346.594828 133.920781 L 350.625 138.551719 L 352.296606 137.924375 L 353.304149 140.490781 L 354.895609 139.213281 L 355.536773 142.760625 L 358.77694 144.916406 L 359.784483 144.003906 L 359.864628 146.399219 L 356.384025 146.73 L 358.044181 147.882031 L 356.006196 149.878125 L 359.074623 151.155625 L 358.364763 157.58875 L 361.811018 156.892969 L 362.864359 158.752188 L 358.914332 161.626563 L 359.589844 163.42875 L 356.498518 164.295625 L 357.803745 166.633906 L 355.536773 167.295469 L 356.853448 172.907344 L 341.614359 174.835 L 340.286234 178.21125 L 341.614359 181.644531 L 337.046067 187.028281 L 332.168642 189.092813 L 331.32139 186.674688 L 328.722387 186.800156 L 329.455145 188.134688 L 327.440059 189.492031 L 316.574623 189.457813 L 319.64305 186.777344 L 319.620151 183.13875 L 315.73882 181.04 L 314.925916 177.561094 L 311.754445 176.4775 L 308.319639 178.633281 L 306.567888 175.793125 L 304.93063 178.633281 L 296.996228 179.283438 L 297.648842 174.618281 L 297.213766 172.245781 L 295.152883 171.972031 L 295.244477 168.789688 L 292.737069 169.827656 L 289.909079 168.185156 L 289.313712 162.755781 L 281.642645 155.775156 L 281.493804 144.825156 L 277.463631 138.460469 L 278.19639 136.05375 L 276.181304 136.224844 L 275.265356 131.320156 L 276.925512 131.502656 L 277.807112 129.30125 L 282.478448 129.30125 Z M 285.844558 120.073594 " transform="matrix(0.341176,0,0,0.342466,0,0)"/>
<path style="fill-rule:nonzero;fill:rgb(80%,80%,80%);fill-opacity:1;stroke-width:0.5;stroke-linecap:butt;stroke-linejoin:miter;stroke:rgb(100%,100%,100%);stroke-opacity:1;stroke-miterlimit:4;" d="M 338.912311 398.317656 L 345.117861 383.204375 L 347.625269 385.611094 L 349.697602 381.345156 L 351.51805 381.858438 L 355.0559 379.041094 L 359.509698 388.725 L 364.100889 387.755469 L 364.295528 384.858281 L 365.806843 384.538906 L 367.341056 387.595781 L 370.535426 387.059688 L 375.435749 392.534688 L 377.164601 401.237656 L 384.057112 412.187656 L 383.186961 417.183594 L 386.587419 416.157031 L 391.87702 420.2975 L 394.750808 416.054375 L 397.475754 415.586719 L 397.624596 418.826094 L 399.387796 419.248125 L 400.017511 416.054375 L 402.181439 415.746406 L 408.158001 419.978125 L 411.146282 424.780156 L 411.111934 430.8825 L 413.84833 431.795 L 416.264143 436.197813 L 407.848869 443.246875 L 408.925108 444.501563 L 407.276401 453.615156 L 401.368534 452.953594 L 398.895474 457.139688 L 400.796067 457.80125 L 400.372441 459.124375 L 395.048491 462.204063 L 394.224138 461.08625 L 394.624865 462.6375 L 391.224407 464.291406 L 390.789332 466.538438 L 386.827856 465.067031 L 385.671471 461.257344 L 380.072737 461.679375 L 366.436557 470.929844 L 360.734779 477.534063 L 353.521686 476.290781 L 347.224542 482.917813 L 341.568561 494.677656 L 340.950296 509.380313 L 341.705954 518.585156 L 345.598734 519.931094 L 346.972656 524.482188 L 343.297414 524.995469 L 341.40827 522.326406 L 337.52694 521.824531 L 330.519935 525.759688 L 326.214978 526.158906 L 326.111934 529.751875 L 322.161907 528.759531 L 320.226967 530.185313 L 316.185345 526.797656 L 308.880657 524.299688 L 304.667295 525.109531 L 298.896821 529.329844 L 295.484914 523.455625 L 286.943696 521.094531 L 287.332974 517.684063 L 289.325162 516.634688 L 297.099273 514.216563 L 298.106816 511.73 L 305.537446 510.612188 L 301.724811 506.654219 L 298.3816 507.657969 L 294.614763 506.277813 L 292.347791 502.593594 L 293.023303 500.951094 L 297.637392 499.924531 L 297.385506 496.593906 L 295.473464 495.875313 L 298.484644 494.723281 L 295.805496 489.704531 L 296.240571 486.225625 L 286.107893 481.811406 L 286.680361 473.245313 L 290.470097 473.268125 L 289.966325 470.348125 L 292.073006 467.496563 L 293.824758 470.154219 L 299.744073 467.884375 L 301.198141 470.154219 L 305.262662 468.967969 L 307.094558 470.827188 L 308.903556 466.515625 L 314.639682 468.990781 L 323.409887 468.158125 L 325.917295 465.933906 L 326.18063 463.310469 L 323.741918 460.424688 L 324.989898 455.075156 L 329.535291 457.687188 L 339.072602 452.280625 L 342.221175 453.204531 L 342.335668 445.071875 L 348.564116 446.269531 L 350.693696 441.638594 L 353.968211 441.672813 L 354.575027 438.501875 L 358.021282 435.650313 L 355.823006 432.262656 L 350.579203 430.24375 L 353.052263 429.365469 L 354.735318 424.027344 L 348.186288 424.620469 L 349.273976 422.282188 L 346.388739 421.449531 L 346.02236 419.692969 L 344.717134 420.434375 L 345.701778 410.26 L 342.461611 406.51875 L 343.251616 403.245156 Z M 298.198411 523.695156 L 297.202317 521.459531 L 295.988685 523.102031 Z M 298.198411 523.695156 " transform="matrix(0.341176,0,0,0.342466,0,0)"/>
<path style="fill-rule:nonzero;fill:rgb(80%,80%,80%);fill-opacity:1;stroke-width:0.5;stroke-linecap:butt;stroke-linejoin:miter;stroke:rgb(100%,100%,100%);stroke-opacity:1;stroke-miterlimit:4;" d="M 264.03354 295.524531 L 269.242996 296.334375 L 271.326778 294.634844 L 273.879984 297.862813 L 278.471175 293.015156 L 279.26118 295.068281 L 281.940329 293.334531 L 282.730334 295.342031 L 285.10035 293.517031 L 286.897899 295.205156 L 289.141972 291.224375 L 291.466191 293.083594 L 297.271013 292.045625 L 301.816406 294.030313 L 309.785156 293.437188 L 310.082839 295.74125 L 312.006331 296.28875 L 310.701105 298.033906 L 318.177532 301.809375 L 323.135102 316.455 L 323.547279 320.19625 L 321.58944 321.10875 L 321.268858 323.675156 L 314.284752 328.922031 L 319.894935 335.754375 L 319.81479 339.780781 L 317.307381 342.506875 L 319.654499 344.982031 L 318.39507 352.955 L 320.078125 354.563281 L 318.097387 355.863594 L 312.624596 353.388438 L 313.08257 357.825469 L 306.201509 364.600781 L 307.792969 367.897188 L 305.594693 369.573906 L 305.331358 372.790469 L 302.240032 374.090781 L 304.083378 377.524063 L 300.69437 379.006875 L 296.000135 380.387031 L 294.351428 378.915625 L 289.954876 382.120781 L 283.485991 375.927188 L 278.986395 374.843594 L 275.253906 376.417656 L 272.334321 371.410313 L 273.754041 370.246875 L 269.449084 369.767813 L 267.239359 367.862969 L 268.659079 366.505625 L 266.105873 365.593125 L 268.189655 362.673125 L 266.094423 361.589531 L 266.483702 358.680938 L 270.124596 355.3275 L 267.296606 353.95875 L 268.830819 352.13375 L 261.663524 349.624375 L 263.552667 346.681563 L 260.186557 346.373594 L 257.392915 341.662813 L 252.366649 342.233125 L 251.187365 340.955625 L 248.840248 343.784375 L 246.32139 341.252188 L 247.294585 338.309375 L 241.283675 335.777188 L 244.787177 332.686094 L 244.661234 330.199531 L 247.603718 330.952344 L 248.79445 322.625781 L 251.714036 323.161875 L 254.404634 320.333125 L 253.488685 317.915 L 248.908944 315.508281 L 248.737204 311.173906 L 250.282866 310.329844 L 248.038793 305.847188 L 252.595636 301.296094 L 256.866245 301.797969 L 258.652344 296.859063 L 262.029903 297.760156 Z M 264.03354 295.524531 " transform="matrix(0.341176,0,0,0.342466,0,0)"/>
<path style="fill-rule:nonzero;fill:rgb(80%,80%,80%);fill-opacity:1;stroke-width:0.5;stroke-linecap:butt;stroke-linejoin:miter;stroke:rgb(100%,100%,100%);stroke-opacity:1;stroke-miterlimit:4;" d="M 440.078798 96.553906 L 442.334321 103.1125 L 445.814925 101.059375 L 448.093346 102.507969 L 449.375673 99.781875 L 453.669181 100.500469 L 454.802667 98.949219 L 458.775593 103.055469 L 462.817214 103.397656 L 463.458378 106.112344 L 468.370151 105.952656 L 469.492188 103.431875 L 474.129176 102.097344 L 479.350081 105.542031 L 482.006331 104.492656 L 487.318831 107.994375 L 486.62042 109.203438 L 489.162177 111.530313 L 487.765356 112.705156 L 492.024515 116.971094 L 494.898303 124.305313 L 498.917026 125.001094 L 499.031519 121.225625 L 503.187635 120.586875 L 507.137662 122.628594 L 507.858971 127.487656 L 509.839709 124.864219 L 512.244073 127.099844 L 517.922953 127.453438 L 520.865436 123.883281 L 524.1743 123.107656 L 523.80792 124.305313 L 526.235183 124.042969 L 527.654903 128.548438 L 532.165948 131.297344 L 528.021282 138.939531 L 524.494881 136.669688 L 519.262527 138.255156 L 517.934402 136.3275 L 510.961746 134.308594 L 509.793912 129.803125 L 507.046067 137.445313 L 503.382274 138.893906 L 503.828798 141.403281 L 509.656519 143.35375 L 507.824623 144.505781 L 508.958109 148.247031 L 512.083782 144.425938 L 516.514682 145.874531 L 518.793103 149.330625 L 515.793373 154.052813 L 518.369477 156.060313 L 514.78583 162.801406 L 508.419989 164.546563 L 511.282328 166.211875 L 509.438982 165.846875 L 510.583917 167.671875 L 508.866514 175.279844 L 513.19437 176.066875 L 513.984375 177.903281 L 508.191002 188.1575 L 508.912311 190.381719 L 503.382274 197.19125 L 501.412985 203.920938 L 502.374731 206.453125 L 498.905577 208.164063 L 489.265221 200.499063 L 484.078664 204.228906 L 480.391972 199.586563 L 472.709456 201.354531 L 469.847117 195.959375 L 465.885641 196.940313 L 462.141703 201.115 L 461.454741 198.548594 L 459.439655 201.730938 L 457.871094 198.662656 L 455.398033 200.088438 L 454.951509 195.0925 L 448.768858 191.875938 L 450.543508 190.461563 L 450.955684 186.047344 L 452.993669 184.895313 L 449.318427 182.157813 L 449.833648 180.526719 L 448.081897 179.043906 L 447.14305 180.150313 L 444.47535 175.553594 L 440.41083 176.580156 L 441.040544 173.591719 L 439.025458 172.850313 L 442.17403 170.865625 L 436.33486 165.470469 L 431.514682 164.295625 L 427.667699 160.098125 L 425.675512 160.075313 L 425.103044 157.794063 L 422.675781 158.854844 L 423.133755 150.916094 L 418.164736 147.357344 L 420.111126 144.597031 L 419.962284 140.034531 L 424.335938 136.3275 L 422.469693 135.700156 L 424.209995 133.190781 L 421.256061 133.31625 L 422.88187 130.339219 L 420.179822 122.993594 L 422.366649 121.465156 L 420.672144 119.674375 L 424.805361 117.324688 L 424.942753 111.404844 L 426.900593 110.720469 L 425.904499 109.169219 L 427.324219 105.644688 L 425.160291 102.93 L 427.381466 97.09 L 433.598464 100.306563 L 439.139952 95.53875 Z M 440.078798 96.553906 " transform="matrix(0.341176,0,0,0.342466,0,0)"/>
<path style="fill-rule:nonzero;fill:rgb(80%,80%,80%);fill-opacity:1;stroke-width:0.5;stroke-linecap:butt;stroke-linejoin:miter;stroke:rgb(100%,100%,100%);stroke-opacity:1;stroke-miterlimit:4;" d="M 210.530711 475.0475 L 211.801589 477.727969 L 210.072737 478.97125 Z M 211.297818 475.024688 L 211.355065 471.443125 Z M 275.253906 376.417656 L 278.986395 374.843594 L 283.485991 375.927188 L 289.954876 382.120781 L 294.351428 378.915625 L 296.000135 380.387031 L 300.69437 379.006875 L 301.9309 384.98375 L 305.274111 389.922656 L 303.533809 395.283594 L 306.625135 399.8575 L 307.163254 397.975469 L 310.414871 396.914688 L 312.784887 398.534375 L 318.246228 397.952656 L 321.417699 393.914844 L 323.272495 386.592031 L 328.768184 381.014375 L 330.2566 385.998906 L 333.863147 384.915313 L 338.93521 398.317656 L 343.240167 403.267969 L 342.450162 406.541563 L 345.690329 410.282813 L 344.705684 420.445781 L 346.010911 419.704375 L 346.37729 421.472344 L 349.262527 422.305 L 348.174838 424.643281 L 354.735318 424.050156 L 353.040814 429.388281 L 350.567753 430.255156 L 355.811557 432.285469 L 358.009833 435.673125 L 354.563578 438.524688 L 353.956762 441.695625 L 350.682247 441.661406 L 348.552667 446.292344 L 342.335668 445.094688 L 342.209725 453.215938 L 339.061153 452.303438 L 329.523842 457.71 L 324.978448 455.086563 L 323.730469 460.436094 L 326.169181 463.333281 L 325.905846 465.945313 L 323.398438 468.180938 L 314.628233 469.013594 L 308.892107 466.527031 L 307.094558 470.85 L 305.251212 468.990781 L 301.186692 470.165625 L 299.732624 467.895781 L 293.824758 470.165625 L 292.061557 467.519375 L 289.954876 470.370938 L 290.458648 473.290938 L 286.668912 473.268125 L 286.096444 481.834219 L 296.229122 486.237031 L 295.794046 489.727344 L 298.484644 494.734688 L 295.462015 495.886719 L 297.374057 496.605313 L 297.625943 499.947344 L 293.011853 500.973906 L 292.336342 502.605 L 294.603314 506.300625 L 298.370151 507.680781 L 301.724811 506.665625 L 305.525997 510.635 L 298.095366 511.752813 L 297.087823 514.239375 L 289.325162 516.6575 L 286.794855 515.756406 L 287.195582 514.262188 L 279.524515 512.083594 L 276.593481 512.311719 L 274.83028 515.049219 L 271.47562 508.513438 L 263.724407 509.106563 L 259.980469 504.623906 L 253.614628 504.566875 L 244.569639 500.483438 L 241.924838 504.897656 L 243.195717 510.076094 L 232.68521 510.098906 L 230.086207 508.228281 L 227.361261 511.079844 L 222.449488 507.509688 L 212.774784 510.030469 L 208.492726 504.076406 L 202.161234 501.179219 L 203.214574 492.373594 L 207.71417 489.73875 L 207.164601 486.214219 L 210.313173 482.484375 L 212.374057 482.655469 L 212.14507 480.043438 L 214.469289 477.32875 L 213.267107 475.572188 L 216.415679 473.017188 L 215.15625 467.3825 L 212.396956 469.344375 L 212.465652 466.367344 L 214.434941 465.865469 L 211.194774 459.592031 L 205.286907 459.557813 L 203.592403 457.516094 L 204.828933 452.440313 L 207.118804 450.717969 L 205.802128 446.657344 L 207.164601 446.554688 L 207.462284 443.224063 L 205.252559 441.535938 L 207.737069 439.152031 L 211.206223 439.767969 L 213.679283 436.562813 L 215.465383 438.296563 L 214.320447 439.73375 L 217.64076 441.615781 L 217.503367 437.874531 L 220.457301 435.547656 L 221.693831 437.212969 L 224.785156 434.384219 L 227.670393 436.175 L 239.818157 430.996563 L 242.760641 434.224531 L 248.382274 429.228594 L 248.004445 427.357969 L 252.355199 427.68875 L 250.672144 425.031094 L 252.88187 424.654688 L 254.713766 419.829844 L 251.324758 417.765313 L 252.446794 413.670469 L 254.324488 415.746406 L 259.304957 414.560156 L 256.007543 404.283125 L 261.102505 402.583594 L 262.911503 396.971719 L 269.861261 392.876875 L 269.128502 389.626094 L 275.01347 384.767031 L 273.708244 377.375781 Z M 275.253906 376.417656 " transform="matrix(0.341176,0,0,0.342466,0,0)"/>
<path style="fill-rule:nonzero;fill:rgb(80%,80%,80%);fill-opacity:1;stroke-width:0.5;stroke-linecap:butt;stroke-linejoin:miter;stroke:rgb(100%,100%,100%);stroke-opacity:1;stroke-miterlimit:4;" d="M 321.474946 2.235625 L 324.405981 9.330313 L 322.677128 11.155313 L 323.066406 15.752031 L 324.554822 18.192969 L 328.195717 18.329844 L 331.14965 23.964531 L 335.798087 26.074688 L 337.710129 22.17375 L 345.953664 19.675781 L 347.61382 23.918906 L 350.487608 25.45875 L 349.594558 28.310313 L 351.769935 37.024688 L 355.284887 39.180469 L 359.383755 36.454375 L 361.215652 37.081719 L 360.448545 39.442813 L 364.925242 38.8725 L 367.08917 41.4275 L 367.020474 47.062188 L 369.092807 51.236875 L 370.730065 48.248438 L 377.153152 49.8225 L 382.236665 47.735156 L 386.942349 54.29375 L 387.972791 52.274844 L 389.884833 53.38125 L 386.56452 62.335156 L 389.552802 62.380781 L 390.800781 66.487031 L 387.892645 67.844375 L 387.125539 72.258594 L 380.38187 71.380313 L 380.450566 68.106719 L 376.523438 70.35375 L 375.882274 68.52875 L 369.344693 66.452813 L 365.165679 69.304375 L 362.246094 67.399531 L 360.047818 69.760625 L 354.769666 68.562969 L 346.835264 70.194063 L 340.274784 67.125781 L 334.034887 69.62375 L 333.783001 65.950938 L 329.19181 68.118125 L 330.565733 63.772344 L 328.447602 62.825625 L 327.371363 65.722813 L 322.058863 63.646875 L 322.139009 61.924531 L 320.295663 63.612656 L 318.154634 62.027188 L 315.55563 65.323594 L 313.79243 63.886406 L 314.284752 61.04625 L 318.715652 58.411406 L 316.906654 56.084531 L 313.059671 57.635781 L 311.971983 55.537031 L 311.754445 57.225156 L 309.384429 56.198594 L 304.369612 58.685156 L 301.701913 58.023594 L 301.335533 54.692969 L 295.919989 52.3775 L 295.954337 49.582969 L 294.351428 50.849063 L 290.046471 47.655313 L 284.253098 49.662813 L 283.279903 48.225625 L 279.639009 45.0775 L 280.978583 36.123594 L 282.993669 37.754688 L 280.554957 34.104688 L 279.982489 23.873281 L 282.10062 18.774688 L 280.749596 14.360469 L 292.782866 7.858906 L 291.557786 7.630781 L 302.62931 5.589063 L 304.827586 3.330625 L 305.663389 5.725938 L 306.35035 3.330625 L 313.987069 2.817344 L 320.753637 0 Z M 321.474946 2.235625 " transform="matrix(0.341176,0,0,0.342466,0,0)"/>
<path style="fill-rule:nonzero;fill:rgb(80%,80%,80%);fill-opacity:1;stroke-width:0.5;stroke-linecap:butt;stroke-linejoin:miter;stroke:rgb(100%,100%,100%);stroke-opacity:1;stroke-miterlimit:4;" d="M 134.839036 88.5125 L 147.994343 92.858281 L 147.788254 94.341094 L 148.314925 92.926719 L 153.341191 92.219531 L 153.925108 90.383125 L 162.55792 90.42875 L 164.057786 96.143281 L 160.714574 99.930156 L 166.645339 108.895469 L 165.202721 113.515 L 167.149111 111.735625 L 168.774919 112.921875 L 170.480873 110.001875 L 175.014817 109.522813 L 183.739224 112.6025 L 198.737877 113.60625 L 205.870824 116.936875 L 215.064655 114.142344 L 224.384429 107.595156 L 219.713093 107.389844 L 226.949084 107.275781 L 228.002425 116.754375 L 231.082301 116.628906 L 228.460399 119.001406 L 231.528825 121.385313 L 231.139547 124.966875 L 233.131735 125.776719 L 232.570717 129.917188 L 230.395339 131.354375 L 233.738551 133.692656 L 231.09375 140.228438 L 233.956088 142.327188 L 240.711207 142.395625 L 240.459321 145.258594 L 246.584725 149.342031 L 247.237338 151.20125 L 245.325296 153.128906 L 248.989089 155.444375 L 249.137931 159.071563 L 255.263335 164.603594 L 253.992457 167.535 L 255.652613 169.793438 L 253.087958 174.025156 L 247.099946 177.161875 L 249.595905 183.925781 L 248.244881 185.134844 L 245.771821 185.499844 L 242.268319 180.800469 L 241.661503 182.705313 L 237.367996 181.724375 L 235.455954 177.914688 L 231.414332 177.184688 L 231.013605 170.762969 L 227.624596 167.26125 L 221.144262 168.709844 L 217.537716 173.682969 L 215.087554 172.451094 L 213.015221 173.865469 L 213.015221 169.08625 L 209.030846 168.732656 L 207.908809 165.379219 L 209.076643 164.295625 L 206.511988 162.06 L 204.771686 162.014375 L 203.844289 165.584531 L 201.783405 164.637813 L 200.45528 167.033125 L 198.634833 165.424844 L 193.940598 165.481875 L 188.05563 169.531094 L 187.563308 166.964688 L 184.792565 167.694688 L 185.490975 169.166094 L 183.567484 170.044375 L 180.018184 166.086406 L 170.70986 165.538906 L 163.084591 163.314688 L 158.917026 168.002656 L 156.123384 168.504531 L 153.329741 166.736563 L 149.872037 157.645781 L 158.917026 157.794063 L 156.512662 156.105938 L 157.554553 155.079375 L 155.024246 156.356875 L 149.975081 150.596719 L 149.791891 145.897344 L 148.131735 145.064688 L 151.177263 138.97375 L 150.490302 133.008281 L 152.688578 133.384688 L 150.364359 132.266875 L 149.6316 134.673594 L 148.727101 132.255469 L 148.108836 120.894844 L 150.055226 120.700938 L 148.097387 119.879688 L 147.593615 121.45375 L 144.250404 113.88 L 139.991245 111.085469 L 136.751078 100.797031 L 138.708917 98.447344 L 138.376886 94.603438 L 134.278017 91.7975 Z M 134.839036 88.5125 " transform="matrix(0.341176,0,0,0.342466,0,0)"/>
<path style="fill-rule:nonzero;fill:rgb(80%,80%,80%);fill-opacity:1;stroke-width:0.5;stroke-linecap:butt;stroke-linejoin:miter;stroke:rgb(100%,100%,100%);stroke-opacity:1;stroke-miterlimit:4;" d="M 272.334321 66.806406 L 275.288254 66.441406 L 275.437096 68.414688 L 286.222387 78.235469 L 289.290814 86.219844 L 287.76805 86.162813 L 285.272091 90.554219 L 287.859644 90.554219 L 285.615571 93.793594 L 285.569774 97.740156 L 287.745151 100.568906 L 286.451374 102.758906 L 289.485453 102.770313 L 286.313982 108.906875 L 290.035022 117.370313 L 289.416756 119.183906 L 288.134429 117.507188 L 286.107893 117.997656 L 285.878906 120.085 L 282.501347 129.324063 L 277.830011 129.324063 L 276.948411 131.525469 L 275.276805 131.354375 L 276.204203 136.247656 L 278.219289 136.087969 L 277.475081 138.494688 L 275.265356 139.555469 L 275.780577 142.80625 L 271.704607 145.155938 L 272.128233 148.509375 L 270.468077 149.775469 L 261.709321 147.996094 L 261.457435 150.687969 L 259.304957 149.946563 L 257.072333 152.0225 L 251.542295 152.627031 L 249.011988 155.49 L 245.348195 153.174531 L 247.260237 151.246875 L 246.596175 149.387656 L 240.48222 145.315625 L 240.734106 142.44125 L 233.978987 142.384219 L 231.105199 140.285469 L 233.761449 133.738281 L 230.418238 131.4 L 232.593615 129.974219 L 233.154634 125.83375 L 231.162446 125.023906 L 231.551724 121.442344 L 228.483297 119.047031 L 231.105199 116.674531 L 228.025323 116.811406 L 226.971983 107.332813 L 227.384159 106.203594 L 219.873384 104.948906 L 217.892645 102.405313 L 221.476293 93.747969 L 220.274111 92.139688 L 221.579337 92.744219 L 223.731816 89.390781 L 239.486126 80.197344 L 254.988551 75.748906 L 260.564386 76.37625 L 260.301051 75.121563 Z M 272.334321 66.806406 " transform="matrix(0.341176,0,0,0.342466,0,0)"/>
<path style="fill-rule:nonzero;fill:rgb(80%,80%,80%);fill-opacity:1;stroke-width:0.5;stroke-linecap:butt;stroke-linejoin:miter;stroke:rgb(100%,100%,100%);stroke-opacity:1;stroke-miterlimit:4;" d="M 121.443292 256.697656 L 123.08055 257.849688 L 122.485183 259.902813 L 125.599407 261.465469 L 125.897091 264.784688 L 123.469828 260.929375 L 119.634294 258.910469 L 119.35951 256.880156 Z M 170.698411 165.561719 L 180.006735 166.109219 L 183.556034 170.055781 L 185.479526 169.188906 L 184.781115 167.7175 L 187.551859 166.976094 L 188.05563 169.553906 L 193.929149 165.504688 L 198.634833 165.43625 L 200.443831 167.044531 L 201.771956 164.660625 L 203.844289 165.595938 L 204.760237 162.037188 L 206.500539 162.082813 L 209.065194 164.307031 L 207.89736 165.402031 L 209.019397 168.755469 L 213.015221 169.109063 L 213.003772 173.888281 L 215.076105 172.473906 L 217.526266 173.694375 L 221.132812 168.732656 L 227.624596 167.284063 L 231.002155 170.774375 L 231.414332 177.196094 L 235.444504 177.926094 L 237.356546 181.747188 L 241.650054 182.728125 L 242.25687 180.823281 L 245.760372 185.522656 L 248.244881 185.14625 L 253.145205 188.590938 L 250.454607 188.933125 L 248.886045 191.031875 L 250.122575 192.697188 L 248.073141 192.845469 L 248.221983 194.921406 L 250.076778 195.377656 L 250.363012 200.921094 L 248.79445 204.114844 L 246.710668 203.350625 L 247.042699 207.582344 L 244.271956 211.585938 L 239.463227 214.608594 L 240.8257 216.125625 L 239.886853 217.425938 L 233.784348 220.665313 L 231.047953 219.171094 L 231.070851 223.676563 L 224.785156 221.543594 L 223.193696 225.581406 L 224.327182 227.965313 L 221.476293 234.124688 L 222.701374 235.219688 L 218.33917 241.333438 L 217.388874 248.485156 L 214.812769 248.724688 L 213.599138 253.207344 L 211.515356 252.351875 L 209.729256 255.180625 L 207.656923 254.199688 L 209.179688 252.180781 L 207.462284 251.884219 L 198.634833 252.922188 L 195.131331 255.214844 L 196.02438 253.515313 L 194.570312 253.389844 L 192.005657 254.564688 L 192.543777 256.492344 L 190.253906 258.648125 L 182.445447 258.134844 L 177.934402 260.016875 L 181.609644 263.279063 L 180.647899 265.469063 L 186.166487 269.997344 L 185.284887 273.259531 L 188.731142 278.814375 L 187.826643 280.445469 L 189.612742 281.32375 L 188.490706 294.794531 L 189.967672 293.825 L 192.726967 295.55875 L 185.147495 300.543281 L 180.590652 298.159375 L 176.434537 300.075625 L 175.198006 299.334219 L 176.514682 296.425625 L 168.774919 299.687813 L 165.22562 299.790469 L 165.053879 302.49375 L 160.497037 298.649844 L 161.344289 301.21625 L 159.352101 298.159375 L 154.188443 298.147969 L 152.253502 294.46375 L 146.666218 293.494219 L 139.842403 289.000156 L 137.999057 281.996719 L 126.160426 269.210313 L 125.748249 265.126875 L 127.465652 264.978594 L 132.98424 256.663438 L 127.957974 251.427969 L 121.844019 250.344375 L 125.19868 248.165781 L 124.992592 242.337188 L 119.680092 244.264844 L 116.52007 241.493125 L 114.184402 242.713594 L 109.490167 240.774531 L 111.115975 237.843125 L 108.894801 235.641719 L 113.085264 231.124844 L 114.516433 229.356875 L 118.924434 230.326406 L 119.70299 226.950156 L 125.301724 228.569844 L 125.565059 226.619375 L 128.015221 225.935 L 128.702182 218.749063 L 133.213227 216.045781 L 133.968885 217.425938 L 137.907462 215.144688 L 146.219693 215.07625 L 147.788254 211.757031 L 153.982355 209.3275 L 153.741918 207.342813 L 163.370824 210.958594 L 167.17201 199.335625 L 172.919585 196.974531 L 169.404634 180.652188 L 171.717403 176.75125 Z M 170.698411 165.561719 " transform="matrix(0.341176,0,0,0.342466,0,0)"/>
<path style="fill-rule:nonzero;fill:rgb(80%,80%,80%);fill-opacity:1;stroke-width:0.5;stroke-linecap:butt;stroke-linejoin:miter;stroke:rgb(100%,100%,100%);stroke-opacity:1;stroke-miterlimit:4;" d="M 282.684537 47.735156 L 283.279903 48.202813 L 284.253098 49.64 L 290.046471 47.643906 L 294.351428 50.82625 L 295.954337 49.560156 L 295.919989 52.354688 L 301.335533 54.670156 L 301.701913 58.000781 L 304.369612 58.67375 L 309.384429 56.175781 L 311.754445 57.202344 L 311.971983 55.525625 L 313.059671 57.624375 L 316.906654 56.073125 L 318.715652 58.388594 L 314.284752 61.034844 L 313.79243 63.875 L 315.55563 65.300781 L 318.154634 62.004375 L 320.295663 63.589844 L 322.139009 61.901719 L 322.058863 63.635469 L 327.371363 65.7 L 328.447602 62.814219 L 330.565733 63.749531 L 329.19181 68.095313 L 333.783001 65.928125 L 334.034887 69.600938 L 340.274784 67.114375 L 346.835264 70.17125 L 354.769666 68.540156 L 360.047818 69.737813 L 362.246094 67.376719 L 365.165679 69.292969 L 369.344693 66.43 L 375.882274 68.505938 L 376.523438 70.330938 L 380.450566 68.095313 L 380.38187 71.3575 L 387.125539 72.235781 L 390.835129 73.558906 L 391.70528 79.376094 L 389.747441 85.045 L 391.567888 86.516406 L 386.438578 91.580781 L 385.980603 94.455156 L 382.179418 95.17375 L 384.434941 98.424531 L 382.717538 111.8725 L 378.034752 108.906875 L 375.195312 110.595 L 375.023572 112.853438 L 371.966595 112.123438 L 366.470905 114.838125 L 366.825835 121.225625 L 370.752963 124.636094 L 365.49771 125.183594 L 364.604661 127.134063 L 366.161773 129.814531 L 363.963497 132.346719 L 366.676994 131.958906 L 367.81048 133.783906 L 359.807381 143.981094 L 358.811288 144.905 L 355.559671 142.737813 L 354.918508 139.190469 L 353.315598 140.456563 L 352.308055 137.901563 L 350.636449 138.5175 L 346.594828 133.886563 L 347.568023 131.502656 L 345.415544 127.955313 L 342.564655 127.270938 L 342.427263 129.278438 L 339.152748 130.168125 L 338.374192 128.867813 L 333.519666 130.225156 L 331.710668 128.548438 L 328.619343 130.806875 L 324.428879 127.807031 L 322.379445 129.620625 L 321.085668 126.803281 L 318.509564 127.955313 L 311.181977 122.902344 L 307.827317 125.126563 L 307.23195 123.347188 L 305.239763 124.350938 L 301.518723 121.385313 L 293.298087 124.396563 L 287.962689 123.598125 L 285.856008 120.039375 L 286.084995 117.952031 L 288.11153 117.461563 L 289.405307 119.126875 L 290.023572 117.324688 L 286.291083 108.86125 L 289.462554 102.724688 L 286.428475 102.713281 L 287.722252 100.523281 L 285.546875 97.694531 L 285.592672 93.736563 L 287.836746 90.497188 L 285.249192 90.497188 L 287.745151 86.105781 L 289.267915 86.174219 L 286.199488 78.189844 L 275.425647 68.357656 L 275.265356 66.384375 L 272.311422 66.760781 L 278.322333 57.544531 L 285.203394 58.753594 L 278.997845 53.187344 L 279.684806 47.54125 Z M 282.684537 47.735156 " transform="matrix(0.341176,0,0,0.342466,0,0)"/>
<path style="fill-rule:nonzero;fill:rgb(80%,80%,80%);fill-opacity:1;stroke-width:0.5;stroke-linecap:butt;stroke-linejoin:miter;stroke:rgb(100%,100%,100%);stroke-opacity:1;stroke-miterlimit:4;" d="M 156.695851 315.702188 L 163.737204 319.534688 L 165.878233 326.914531 L 164.034887 330.496094 L 162.454876 325.67125 L 157.554553 321.325469 Z M 152.413793 303.178125 L 153.925108 304.581094 L 151.990167 304.854844 L 152.791622 306.371875 L 156.455415 304.809219 L 155.940194 306.542969 L 158.424704 306.086719 L 163.176185 308.847031 L 160.78327 310.044688 L 151.463497 306.497344 L 150.295663 304.010781 Z M 168.774919 299.642188 L 176.514682 296.368594 L 175.198006 299.277188 L 176.434537 300.018594 L 180.590652 298.11375 L 185.147495 300.48625 L 192.726967 295.513125 L 189.967672 293.767969 L 188.490706 294.7375 L 189.612742 281.266719 L 187.826643 280.388438 L 188.731142 278.757344 L 185.284887 273.213906 L 186.166487 269.951719 L 180.647899 265.423438 L 181.609644 263.233438 L 177.934402 259.97125 L 182.445447 258.089219 L 190.253906 258.6025 L 192.543777 256.435313 L 192.005657 254.519063 L 194.570312 253.344219 L 196.02438 253.458281 L 195.131331 255.169219 L 198.634833 252.865156 L 207.462284 251.827188 L 209.179688 252.135156 L 207.656923 254.154063 L 209.729256 255.135 L 211.515356 252.294844 L 213.599138 253.161719 L 214.812769 248.679063 L 217.388874 248.439531 L 218.476562 251.165625 L 222.701374 251.405156 L 222.563982 254.827031 L 227.72764 255.306094 L 228.574892 262.640313 L 239.978448 261.032031 L 238.719019 258.055 L 243.859779 260.028281 L 244.386449 264.305625 L 253.030711 274.970469 L 252.927667 282.555625 L 262.625269 288.190313 L 262.900054 291.714844 L 265.44181 292.604531 L 264.044989 295.535938 L 262.041352 297.771563 L 258.675242 296.881875 L 256.889143 301.820781 L 252.607085 301.318906 L 248.061692 305.87 L 250.294316 310.352656 L 248.760102 311.185313 L 248.931843 315.531094 L 253.523033 317.937813 L 254.427532 320.344531 L 251.725485 323.184688 L 248.817349 322.637188 L 247.615167 330.96375 L 244.684133 330.210938 L 244.798626 332.708906 L 241.295124 335.8 L 238.604526 340.328281 L 236.337554 340.3625 L 236.074219 345.164531 L 233.051589 349.03125 L 228.849677 351.609063 L 227.681843 350.593906 L 225.403421 355.897813 L 226.181977 360.16375 L 220.732085 365.524688 L 217.446121 364.292813 L 215.465383 365.73 L 213.301455 371.832344 L 211.481008 370.475 L 207.198949 372.083281 L 200.054553 367.64625 L 199.195851 369.1975 L 197.4441 361.281563 L 191.627829 360.220781 L 190.700431 357.266563 L 190.35695 358.795 L 185.387931 358.372969 L 181.060075 348.689063 L 174.820178 344.662656 L 172.599003 340.978438 L 163.783001 336.849375 L 163.714305 331.305938 L 168.019262 330.313594 L 166.141568 327.325156 L 168.774919 326.982969 L 170.435075 324.074375 L 168.58028 318.405469 L 171.385372 318.428281 L 168.213901 311.025625 L 166.336207 310.375469 L 167.320851 309.223438 L 163.668508 308.835625 L 168.958109 303.075469 Z M 168.774919 299.642188 " transform="matrix(0.341176,0,0,0.342466,0,0)"/>
<path style="fill-rule:nonzero;fill:rgb(80%,80%,80%);fill-opacity:1;stroke-width:0.5;stroke-linecap:butt;stroke-linejoin:miter;stroke:rgb(100%,100%,100%);stroke-opacity:1;stroke-miterlimit:4;" d="M 422.309402 411.26375 L 422.721579 411.72 L 425.664062 413.830156 L 422.17201 418.677813 L 418.118939 418.004844 L 417.466325 415.392813 L 420.351562 411.674375 L 422.229256 411.138281 Z M 436.87298 480.465469 L 438.201105 475.902969 L 435.510506 472.138906 L 432.155846 473.998125 L 424.748114 474.214844 L 421.427802 468.511719 L 418.27923 469.675156 L 416.916756 466.835 L 417.615167 469.344375 L 415.554283 468.260781 L 416.928206 469.857656 L 414.626886 470.75875 L 417.638066 472.458281 L 419.240975 471.066719 L 415.897764 474.077969 L 405.34146 472.230156 L 405.684941 468.717031 L 403.314925 467.006094 L 390.732085 466.549844 L 391.167161 464.302813 L 394.567619 462.648906 L 394.155442 461.097656 L 394.991245 462.215469 L 400.315194 459.124375 L 400.73882 457.812656 L 398.838227 457.151094 L 401.311288 452.965 L 407.219154 453.626563 L 408.856412 444.512969 L 407.791622 443.258281 L 416.195447 436.209219 L 413.791083 431.795 L 411.054688 430.893906 L 411.089036 424.791563 L 408.100754 419.989531 L 408.146552 416.544844 L 413.882678 417.514375 L 415.142107 422.476094 L 425.137392 417.845156 L 427.163928 419.590313 L 429.579741 417.434531 L 428.972926 422.225156 L 437.3882 423.263125 L 438.544585 426.673594 L 441.544316 428.749531 L 445.127963 427.985313 L 447.635372 424.58625 L 450.806843 427.175469 L 449.341325 425.726875 L 451.127425 424.3125 L 451.138874 420.217656 L 447.875808 417.947813 L 448.757408 416.37375 L 443.112877 416.134219 L 440.502425 413.978438 L 440.033001 411.069844 L 443.296067 410.374063 L 441.624461 406.781094 L 448.104795 408.389375 L 450.177128 406.598594 L 447.394935 404.191875 L 449.306977 397.929844 L 455.386584 397.838594 L 457.092538 395.694219 L 455.775862 394.758906 L 456.955145 391.667813 L 462.095905 391.610781 L 463.309537 390.378906 L 462.027209 389.021563 L 464.855199 387.219375 L 466.469558 388.36 L 469.686827 385.542656 L 474.40396 386.26125 L 476.224407 384.98375 L 478.903556 386.090156 L 477.575431 377.68375 L 472.617861 376.657188 L 474.335264 370.543438 L 477.964709 370.38375 L 479.281385 373.48625 L 482.865032 374.558438 L 485.326643 371.205 L 490.330011 371.216406 L 492.093211 376.520313 L 495.035695 376.851094 L 495.31048 383.215781 L 499.981816 386.44375 L 502.970097 385.759375 L 506.565194 388.017813 L 505.626347 390.025313 L 508.786369 396.184688 L 504.057786 396.526875 L 504.275323 399.880313 L 499.615436 405.104375 L 503.485318 410.830313 L 501.172548 411.309375 L 500.955011 414.73125 L 505.901131 422.054063 L 513.389009 424.03875 L 520.430361 428.989063 L 534.009294 425.555781 L 534.890894 433.197969 L 526.235183 442.950313 L 527.666352 448.12875 L 519.720501 452.155156 L 519.480065 454.231094 L 518.735857 452.485938 L 512.163928 455.542813 L 510.698411 459.318281 L 511.671606 461.314375 L 509.725216 460.230781 L 507.252155 462.2725 L 504.103583 461.873281 L 501.126751 468.306406 L 495.070043 468.648594 L 493.87931 472.914531 L 487.994343 477.214688 L 493.089305 477.534063 L 491.005523 483.157344 L 487.444774 481.936875 L 484.765625 484.115469 L 480.105738 484.480469 L 479.258486 487.765469 L 471.908001 486.145781 L 470.591325 491.141719 L 468.095366 491.01625 L 469.308998 488.164688 L 465.02694 488.233125 L 460.93952 485.598281 L 459.279364 486.864375 L 462.038658 488.814844 L 457.081088 489.841406 L 455.615571 488.769219 L 456.245286 486.134375 L 451.539601 484.526094 L 451.161773 482.484375 L 448.482624 482.096563 L 447.738416 483.613594 L 444.898976 480.5225 Z M 436.87298 480.465469 " transform="matrix(0.341176,0,0,0.342466,0,0)"/>
<path style="fill-rule:nonzero;fill:rgb(80%,80%,80%);fill-opacity:1;stroke-width:0.5;stroke-linecap:butt;stroke-linejoin:miter;stroke:rgb(100%,100%,100%);stroke-opacity:1;stroke-miterlimit:4;" d="M 377.00431 302.071719 L 376.637931 305.744531 L 380.061288 306.451719 L 380.748249 308.447813 L 389.804688 306.942188 L 392.621228 309.223438 L 396.66285 307.455469 L 398.025323 300.874063 L 402.112742 302.562188 L 404.780442 300.988125 L 406.852775 302.687656 L 409.405981 300.258125 L 412.669046 308.265313 L 420.248518 287.505938 L 425.057247 289.581875 L 429.671336 287.483125 L 432.476428 291.144531 L 435.739494 291.851719 L 435.09833 293.836406 L 438.327047 295.695625 L 439.437635 299.984375 L 440.284887 297.74875 L 442.414467 299.687813 L 442.34577 302.756094 L 445.059267 302.505156 L 449.375673 297.954063 L 452.318157 300.075625 L 452.79903 302.972813 L 458.787042 302.744688 L 466.904634 293.676719 L 471.266837 296.630938 L 468.461746 301.535625 L 469.389143 303.577344 L 463.401131 305.641875 L 462.462284 310.922969 L 469.549434 310.25 L 476.476293 305.151406 L 477.071659 303.303594 L 475.045124 303.577344 L 473.373518 299.961563 L 474.701643 297.064375 L 485.773168 291.247188 L 498.264413 293.049375 L 496.214978 297.349531 L 500.119208 301.809375 L 497.314116 310.34125 L 501.516029 311.116875 L 500.565733 315.667969 L 503.015894 314.698438 L 507.275054 321.279844 L 505.5691 326.184531 L 498.264413 328.283281 L 497.714844 334.8875 L 502.20299 339.2675 L 505.706492 339.974688 L 505.717942 347.93625 L 513.480603 353.787656 L 510.274784 358.407188 L 511.305226 362.616094 L 501.264143 367.783125 L 501.252694 369.642344 L 496.043238 368.296406 L 490.364359 371.205 L 485.372441 371.193594 L 482.89938 374.547031 L 479.315733 373.474844 L 478.010506 370.372344 L 474.369612 370.532031 L 472.663658 376.645781 L 477.621228 377.672344 L 478.937904 386.07875 L 476.270205 384.972344 L 474.438308 386.249844 L 469.732624 385.53125 L 466.515356 388.348594 L 464.900997 387.207969 L 462.073006 389.010156 L 463.355334 390.3675 L 462.141703 391.599375 L 456.989494 391.656406 L 455.821659 394.7475 L 457.126886 395.682813 L 455.432381 397.827188 L 449.352775 397.918438 L 447.440733 404.180469 L 450.222926 406.587188 L 448.150593 408.377969 L 441.670259 406.769688 L 443.341864 410.362656 L 440.067349 411.058438 L 440.536773 413.967031 L 443.147225 416.122813 L 448.803206 416.362344 L 447.921606 417.936406 L 451.184671 420.20625 L 451.173222 424.301094 L 449.375673 425.715469 L 450.85264 427.175469 L 447.66972 424.574844 L 445.173761 427.973906 L 441.578664 428.738125 L 438.590383 426.662188 L 437.433998 423.251719 L 429.007274 422.225156 L 429.625539 417.423125 L 427.198276 419.578906 L 425.18319 417.845156 L 415.176455 422.464688 L 413.917026 417.514375 L 408.192349 416.544844 L 408.135102 419.978125 L 402.15854 415.746406 L 399.994612 416.054375 L 399.364898 419.248125 L 397.613147 418.826094 L 397.464305 415.586719 L 394.727909 416.054375 L 391.865571 420.2975 L 386.56452 416.157031 L 383.175512 417.183594 L 384.045663 412.187656 L 377.153152 401.237656 L 375.4243 392.534688 L 378.000404 391.108906 L 379.065194 387.709844 L 382.351158 387.322031 L 382.614494 385.063594 L 387.675108 385.006563 L 390.514547 379.736875 L 394.201239 379.155156 L 393.47993 376.451875 L 396.937635 375.436719 L 395.575162 373.098438 L 397.72764 371.433125 L 396.685749 369.151875 L 400.154903 370.611875 L 401.540275 364.509531 L 399.273303 361.452656 L 395.666756 361.452656 L 396.571255 359.867188 L 394.945447 358.909063 L 396.433863 357.825469 L 390.869477 354.722969 L 387.205684 355.019531 L 384.148707 357.848281 L 382.064925 357.072656 L 381.96188 358.315938 L 379.042295 355.487188 L 377.244747 357.962344 L 376.615032 354.369375 L 379.694908 351.974063 L 380.576509 348.438125 L 368.291352 330.96375 L 371.004849 325.329063 L 368.451643 322.705625 L 368.772225 320.367344 L 374.153421 318.610781 L 371.531519 304.284531 Z M 422.206358 411.126875 L 419.321121 412.005156 L 417.454876 415.381406 L 418.107489 417.993438 L 422.16056 418.666406 L 425.652613 413.81875 L 422.710129 411.708594 Z M 422.206358 411.126875 " transform="matrix(0.341176,0,0,0.342466,0,0)"/>
</g>
</svg>
